<svg xmlns="http://www.w3.org/2000/svg" width="1280" height="800" viewBox="0 0 1280 800" fill="none">
  <defs>
    <linearGradient id="g" x1="0" y1="0" x2="1280" y2="800" gradientUnits="userSpaceOnUse">
      <stop stop-color="#F8FAFC"/>
      <stop offset="1" stop-color="#EEF2FF"/>
    </linearGradient>
  </defs>
  <rect width="1280" height="800" fill="url(#g)"/>
  <rect x="0" y="0" width="1280" height="48" fill="#0F172A"/>
  <circle cx="28" cy="24" r="6" fill="#EF4444"/>
  <circle cx="48" cy="24" r="6" fill="#F59E0B"/>
  <circle cx="68" cy="24" r="6" fill="#22C55E"/>
  <rect x="100" y="14" width="420" height="20" rx="10" fill="#1E293B"/>
  <text x="120" y="28" fill="#94A3B8" font-family="system-ui,sans-serif" font-size="12">n8n Workflow Builder</text>
  <rect x="24" y="72" width="220" height="704" rx="16" fill="#FFFFFF" stroke="#E2E8F0"/>
  <rect x="44" y="100" width="160" height="14" rx="7" fill="#EA4B71" opacity="0.9"/>
  <rect x="44" y="136" width="140" height="10" rx="5" fill="#CBD5E1"/>
  <rect x="44" y="162" width="120" height="10" rx="5" fill="#E2E8F0"/>
  <rect x="44" y="188" width="150" height="10" rx="5" fill="#E2E8F0"/>
  <rect x="44" y="214" width="100" height="10" rx="5" fill="#E2E8F0"/>
  <rect x="44" y="240" width="130" height="10" rx="5" fill="#E2E8F0"/>
  <rect x="268" y="72" width="988" height="120" rx="16" fill="#FFFFFF" stroke="#E2E8F0"/>
  <text x="296" y="118" fill="#0F172A" font-family="system-ui,sans-serif" font-size="28" font-weight="700">n8n Workflow Builder</text>
  <text x="296" y="150" fill="#64748B" font-family="system-ui,sans-serif" font-size="16">Visual workflow automation canvas</text>
  <rect x="296" y="168" width="140" height="36" rx="10" fill="#EA4B71"/>
  <rect x="268" y="216" width="640" height="560" rx="16" fill="#FFFFFF" stroke="#E2E8F0"/>
  <rect x="300" y="260" width="180" height="100" rx="12" fill="#EA4B71" opacity="0.12"/>
  <rect x="500" y="260" width="180" height="100" rx="12" fill="#EA4B71" opacity="0.18"/>
  <rect x="700" y="260" width="180" height="100" rx="12" fill="#EA4B71" opacity="0.12"/>
  <rect x="300" y="390" width="580" height="14" rx="7" fill="#E2E8F0"/>
  <rect x="300" y="420" width="480" height="14" rx="7" fill="#E2E8F0"/>
  <rect x="300" y="450" width="520" height="14" rx="7" fill="#E2E8F0"/>
  <rect x="300" y="500" width="120" height="80" rx="12" fill="#EA4B71" opacity="0.25"/>
  <rect x="440" y="500" width="120" height="80" rx="12" fill="#EA4B71" opacity="0.35"/>
  <rect x="580" y="500" width="120" height="80" rx="12" fill="#EA4B71" opacity="0.2"/>
  <rect x="720" y="500" width="120" height="80" rx="12" fill="#EA4B71" opacity="0.3"/>
  <rect x="300" y="610" width="580" height="120" rx="12" fill="#F8FAFC" stroke="#E2E8F0"/>
  <path d="M320 690 L420 650 L520 670 L620 630 L720 655 L860 620" stroke="#EA4B71" stroke-width="3" fill="none" opacity="0.7"/>
  <rect x="932" y="216" width="324" height="560" rx="16" fill="#FFFFFF" stroke="#E2E8F0"/>
  <rect x="956" y="248" width="276" height="12" rx="6" fill="#CBD5E1"/>
  <rect x="956" y="280" width="220" height="10" rx="5" fill="#E2E8F0"/>
  <rect x="956" y="310" width="250" height="10" rx="5" fill="#E2E8F0"/>
  <rect x="956" y="340" width="180" height="10" rx="5" fill="#E2E8F0"/>
  <rect x="956" y="390" width="276" height="120" rx="12" fill="#EA4B71" opacity="0.1"/>
  <rect x="956" y="530" width="276" height="80" rx="12" fill="#F1F5F9"/>
  <rect x="956" y="630" width="276" height="80" rx="12" fill="#F1F5F9"/>
  <text x="640" y="780" text-anchor="middle" fill="#94A3B8" font-family="system-ui,sans-serif" font-size="13">Replace with your screenshot · public\screenshots\automation\n8n-workflow.svg</text>
</svg>
