<svg xmlns="http://www.w3.org/2000/svg" width="800" height="800" viewBox="0 0 800 800" fill="none">
  <defs>
    <linearGradient id="bg" x1="0" y1="0" x2="800" y2="800" gradientUnits="userSpaceOnUse">
      <stop stop-color="#F8FAFC"/>
      <stop offset="1" stop-color="#EEF2FF"/>
    </linearGradient>
    <linearGradient id="panel" x1="40" y1="40" x2="760" y2="760" gradientUnits="userSpaceOnUse">
      <stop stop-color="#FFFFFF"/>
      <stop offset="1" stop-color="#F1F5F9"/>
    </linearGradient>
  </defs>
  <rect width="800" height="800" fill="url(#bg)"/>
  <rect x="40" y="40" width="720" height="720" rx="24" fill="url(#panel)" stroke="#E2E8F0"/>
  <rect x="40" y="40" width="720" height="64" rx="24" fill="#0F172A"/>
  <rect x="40" y="80" width="720" height="24" fill="#0F172A"/>
  <circle cx="72" cy="72" r="8" fill="#EF4444"/>
  <circle cx="96" cy="72" r="8" fill="#F59E0B"/>
  <circle cx="120" cy="72" r="8" fill="#22C55E"/>
  <text x="160" y="78" fill="#94A3B8" font-family="system-ui,sans-serif" font-size="18" font-weight="600">3CX · IVR Configuration</text>
  <rect x="64" y="128" width="180" height="520" rx="16" fill="#F8FAFC" stroke="#E2E8F0"/>
  <rect x="84" y="156" width="140" height="14" rx="7" fill="#2563EB" opacity="0.85"/>
  <rect x="84" y="190" width="120" height="10" rx="5" fill="#CBD5E1"/>
  <rect x="84" y="214" width="100" height="10" rx="5" fill="#E2E8F0"/>
  <rect x="84" y="238" width="130" height="10" rx="5" fill="#E2E8F0"/>
  <rect x="84" y="262" width="90" height="10" rx="5" fill="#E2E8F0"/>
  <rect x="84" y="286" width="110" height="10" rx="5" fill="#E2E8F0"/>
  <rect x="268" y="128" width="460" height="200" rx="16" fill="#FFFFFF" stroke="#E2E8F0"/>
  <text x="292" y="168" fill="#0F172A" font-family="system-ui,sans-serif" font-size="22" font-weight="700">IVR Configuration</text>
  <text x="292" y="198" fill="#64748B" font-family="system-ui,sans-serif" font-size="14">Replace with your official screenshot</text>
  <rect x="292" y="220" width="120" height="36" rx="10" fill="#2563EB"/>
  <rect x="424" y="220" width="100" height="36" rx="10" fill="#E2E8F0"/>
  <rect x="268" y="352" width="460" height="296" rx="16" fill="#FFFFFF" stroke="#E2E8F0"/>
  <rect x='56' y='175' width='28' height='165' rx='6' fill='#2563EB' opacity='0.35'/><rect x='104' y='252' width='28' height='88' rx='6' fill='#2563EB' opacity='0.35'/><rect x='152' y='208' width='28' height='132' rx='6' fill='#2563EB' opacity='0.35'/><rect x='200' y='153' width='28' height='187' rx='6' fill='#2563EB' opacity='0.35'/><rect x='248' y='230' width='28' height='110' rx='6' fill='#2563EB' opacity='0.35'/><rect x='296' y='186' width='28' height='154' rx='6' fill='#2563EB' opacity='0.35'/><rect x='344' y='241' width='28' height='99' rx='6' fill='#2563EB' opacity='0.35'/><rect x='392' y='219' width='28' height='121' rx='6' fill='#2563EB' opacity='0.35'/>
  <rect x="56" y="680" width="688" height="48" rx="12" fill="#0F172A" opacity="0.04"/>
  <text x="400" y="710" text-anchor="middle" fill="#64748B" font-family="system-ui,sans-serif" font-size="13">/public/images/3cx/ivr.svg</text>
</svg>
